<?xml version="1.0" encoding="UTF-8"?>
<!-- ABS — Фон удален, перекрашено в красный (#ff0000) и подогнано под сетку 100x80 -->
<svg 
 id="svg_abs"
 width="100" 
 height="80" 
 viewBox="0 0 166.4 130.49" 
 version="1.1" 
 xmlns="http://www.w3.org/2000/svg">
 
 <g fill="#ffff00">
  <!-- Буквы A, B, S -->
  <path d="m45.737 77.491-2.1243 8.1551h-6.6269l11.251-43.046h9.4321l11.119 43.046h-6.4846l-2.1547-8.1551zm7.3587-28.572h-0.0813l-5.7833 22.313h11.526"/>
  <path d="m70.622 85.642 0.16263-43.046h16.598c6.5354 0 9.8285 1.72 9.7878 11.197-0.02038 4.9375-0.75213 8.2604-4.7974 9.5124v0.23402c4.6652 0.70202 5.5393 4.6567 5.5088 10.109-0.0305 9.5241-3.0695 11.993-10.093 11.993zm6.4338-7.067h8.7613c3.8216 0 5.6511-0.33931 5.6715-5.6162 0.01019-4.7152-0.77246-6.0842-4.5636-6.0842h-9.8285zm0.061-17.948h9.2187c3.598 0 4.401-1.4508 4.4213-6.0374 0.02038-4.5865-1.4128-4.9375-4.5636-4.9375h-9.0255"/>
  <path d="m106.66 71.928-0.0101 2.0008c-0.0101 4.9375 1.6262 5.2769 7.5518 5.2769 5.8138 0 6.6269-1.3689 6.6472-6.365 0.0304-6.131-2.5105-5.3354-7.501-5.6747-7.196-0.57332-12.898-0.23399-12.847-12.742 0.0508-11.829 5.8341-12.168 13.833-12.168 6.8098 0 12.369 0.29251 12.329 11.595v1.3806h-6.4134v-1.3806c0.0304-4.645-1.4433-4.8322-5.9357-4.8322-6.3626 0-7.3892 0.80732-7.4095 5.4056-0.0101 5.2769 0.82327 5.4407 7.318 5.9672 10.276 0.80733 13.071 1.4976 13.03 12.449-0.0406 12.11-4.4924 13.139-13.081 13.139-7.379 0-13.965 0.29251-13.925-12.051l0.0102-2.0008"/>
 </g>
 
 <!-- Центральное кольцо -->
 <ellipse cx="83" cy="65.4" rx="56.6" ry="56.6" fill="none" stroke="#ffff00" stroke-linecap="square" stroke-width="9.3567"/>
 
 <!-- Боковые полукруглые тормозные колодки -->
 <path d="m137.6 16c28.8 28.8 22.4 73.6-1.6 100.8m-108-101.6c-28 32.8-24.8 71.2 1.6 100.8" fill="none" stroke="#ffff00" stroke-linecap="square" stroke-width="9.3732"/>
</svg>
