<?xml version="1.0" encoding="UTF-8" standalone="no"?>
<!-- Created with Inkscape (http://www.inkscape.org/) -->

<svg
   xmlns:dc="http://purl.org/dc/elements/1.1/"
   xmlns:cc="http://creativecommons.org/ns#"
   xmlns:rdf="http://www.w3.org/1999/02/22-rdf-syntax-ns#"
   xmlns:svg="http://www.w3.org/2000/svg"
   xmlns="http://www.w3.org/2000/svg"
   xmlns:sodipodi="http://sodipodi.sourceforge.net/DTD/sodipodi-0.dtd"
   xmlns:inkscape="http://www.inkscape.org/namespaces/inkscape"
   version="1.1"
   width="100"
   height="80"
   id="svg11349"
   inkscape:version="0.91 r13725"
   sodipodi:docname="Kontrollleuchte_Airbag.svg">
  <metadata
     id="metadata13">
    <rdf:RDF>
      <cc:Work
         rdf:about="">
        <dc:format>image/svg+xml</dc:format>
        <dc:type
           rdf:resource="http://purl.org/dc/dcmitype/StillImage" />
      </cc:Work>
    </rdf:RDF>
  </metadata>
  <sodipodi:namedview
     pagecolor="#ffffff"
     bordercolor="#666666"
     borderopacity="1"
     objecttolerance="10"
     gridtolerance="10"
     guidetolerance="10"
     inkscape:pageopacity="0"
     inkscape:pageshadow="2"
     inkscape:window-width="1920"
     inkscape:window-height="1018"
     id="namedview11"
     showgrid="false"
     inkscape:zoom="2.95"
     inkscape:cx="8.1355932"
     inkscape:cy="40"
     inkscape:window-x="-8"
     inkscape:window-y="-8"
     inkscape:window-maximized="1"
     inkscape:current-layer="svg11349" />
  <defs
     id="defs11352">
    <clipPath
       clipPathUnits="userSpaceOnUse"
       id="clipPath1212">
      <path
         inkscape:connector-curvature="0"
         d="m 113.386,106.018 19.84,0 0,18.357 -19.84,0 0,-18.357 z"
         id="path1214" />
    </clipPath>
  </defs>
  <g
     transform="matrix(5.2160216,0,0,-5.2160216,-593.921,642.08063)"
     id="g1208">
    <g
       id="g1210"
       clip-path="url(#clipPath1212)">
      <g
         id="g1216"
         transform="translate(128.2531,117.37109)">
        <path
           inkscape:connector-curvature="0"
           d="m 0,0 0.017,-0.105 c 0,-0.141 -0.034,-0.332 -0.087,-0.56 -0.052,-0.244 -0.122,-0.524 -0.227,-0.823 -0.088,-0.28 -0.193,-0.594 -0.297,-0.927 -0.124,-0.333 -0.245,-0.665 -0.35,-0.98 -0.28,-0.77 -0.595,-1.574 -0.963,-2.449 l -2.765,2.379 c 0.036,0.141 0.071,0.298 0.141,0.489 0.052,0.21 0.14,0.422 0.227,0.647 0.07,0.247 0.175,0.49 0.262,0.736 0.088,0.246 0.176,0.472 0.245,0.684 0.088,0.225 0.14,0.419 0.193,0.595 0.052,0.157 0.069,0.296 0.069,0.385 l 0.159,0.191 c 0.087,0.071 0.192,0.139 0.314,0.194 0.105,0.068 0.245,0.12 0.385,0.191 0.14,0.052 0.28,0.105 0.402,0.157 0.14,0.034 0.263,0.071 0.368,0.089 0.105,0.034 0.193,0.052 0.262,0.052 0.088,0 0.211,-0.018 0.368,-0.036 C -1.137,0.893 -0.98,0.838 -0.822,0.786 -0.664,0.718 -0.525,0.629 -0.368,0.524 -0.228,0.401 -0.105,0.244 0,0.071 L 0,0 Z M 0.613,-8.241 -0.14,-8.73 -2.904,-6.475 c -0.228,-0.105 -0.472,-0.173 -0.753,-0.21 -0.262,-0.052 -0.559,-0.068 -0.857,-0.068 -0.385,0 -0.788,0.034 -1.173,0.087 -0.385,0.052 -0.751,0.104 -1.067,0.175 -0.35,0.068 -0.716,0.157 -1.049,0.262 -0.455,-0.333 -0.875,-0.631 -1.295,-0.875 -0.175,-0.123 -0.367,-0.228 -0.543,-0.332 -0.192,-0.105 -0.366,-0.192 -0.559,-0.281 -0.175,-0.07 -0.333,-0.139 -0.491,-0.191 -0.139,-0.052 -0.279,-0.071 -0.384,-0.071 -0.175,0 -0.368,0.019 -0.577,0.087 -0.21,0.052 -0.404,0.141 -0.578,0.228 -0.175,0.104 -0.333,0.228 -0.454,0.35 -0.123,0.14 -0.176,0.281 -0.176,0.42 l 0.035,0.175 0,0.244 5.022,2.889 2.52,-0.385 2.501,-2.381 0.875,0.508 2.52,-2.397 z M 0,0.945 0.368,0.071 3.255,2.449 2.503,3.201 0,0.945 Z M 0.49,3.499 C 0.402,3.709 0.28,3.884 0.123,4.023 -0.035,4.165 -0.228,4.285 -0.437,4.356 -0.664,4.427 -0.892,4.479 -1.155,4.479 -1.365,4.479 -1.574,4.427 -1.767,4.356 -1.959,4.285 -2.135,4.165 -2.292,4.023 -2.432,3.884 -2.554,3.709 -2.642,3.499 -2.729,3.306 -2.782,3.078 -2.782,2.834 c 0,-0.228 0.053,-0.437 0.14,-0.647 0.088,-0.209 0.21,-0.403 0.35,-0.579 0.157,-0.157 0.333,-0.296 0.525,-0.385 0.193,-0.104 0.402,-0.157 0.612,-0.157 0.263,0 0.491,0.053 0.718,0.157 0.209,0.089 0.402,0.228 0.56,0.385 0.157,0.176 0.279,0.37 0.367,0.579 0.088,0.21 0.123,0.419 0.123,0.647 0,0.244 -0.035,0.472 -0.123,0.665 M -4.672,2.816 c -0.175,0.403 -0.419,0.754 -0.717,1.05 -0.298,0.299 -0.647,0.542 -1.032,0.718 -0.402,0.175 -0.823,0.262 -1.26,0.262 -0.402,0 -0.804,-0.087 -1.173,-0.262 -0.384,-0.176 -0.716,-0.419 -1.014,-0.718 -0.298,-0.296 -0.524,-0.647 -0.7,-1.05 -0.175,-0.385 -0.262,-0.804 -0.262,-1.242 0,-0.437 0.087,-0.856 0.262,-1.241 0.176,-0.385 0.402,-0.718 0.7,-0.998 0.298,-0.281 0.63,-0.508 1.014,-0.666 0.369,-0.157 0.771,-0.243 1.173,-0.243 0.437,0 0.858,0.086 1.26,0.243 0.385,0.158 0.734,0.385 1.032,0.666 0.298,0.28 0.542,0.613 0.717,0.998 0.176,0.385 0.262,0.804 0.262,1.241 0,0.438 -0.086,0.857 -0.262,1.242"
           style="fill:#f7ae14;fill-opacity:1;fill-rule:nonzero;stroke:none"
           id="path1218" />
      </g>
    </g>
  </g>
</svg>