<?xml version="1.0" encoding="UTF-8" standalone="no"?>
<svg
   xmlns:dc="http://purl.org/dc/elements/1.1/"
   xmlns:cc="http://creativecommons.org/ns#"
   xmlns:rdf="http://www.w3.org/1999/02/22-rdf-syntax-ns#"
   xmlns:svg="http://www.w3.org/2000/svg"
   xmlns="http://www.w3.org/2000/svg"
   id="svg2520"
   height="80"
   width="100"
   version="1.1">
  <metadata
     id="metadata11">
    <rdf:RDF>
      <cc:Work
         rdf:about="">
        <dc:format>image/svg+xml</dc:format>
        <dc:type
           rdf:resource="http://purl.org/dc/dcmitype/StillImage" />
        <dc:title></dc:title>
      </cc:Work>
    </rdf:RDF>
  </metadata>
  <defs
     id="defs2523" />
  <path
     id="path6918"
     style="fill:#008000;fill-opacity:1;fill-rule:nonzero;stroke:none"
     d="m 50.057181,9.9802355 c -3.001977,0 -5.603689,0.3573785 -8.219698,1.0721355 -2.644598,0.597537 -5.060474,1.72828 -7.304809,3.037713 -2.451613,1.133605 -4.295685,2.878352 -6.132609,4.701667 -1.908398,1.739717 -3.416534,3.850421 -4.724538,6.097557 -1.472398,2.04426 -2.31581,4.67668 -3.016272,7.281994 -0.800527,2.588105 -1.036396,5.32705 -1.036396,8.186075 0,2.635279 0.343082,5.422143 1.036396,7.995951 0.593247,2.407299 1.708268,4.978306 3.016272,7.226243 1.150757,2.052036 2.887615,4.299231 4.724538,6.175438 1.772596,1.764761 3.881127,3.459478 6.132609,4.768854 2.044204,1.284446 4.681654,2.34297 7.304809,3.093465 2.601713,0.642594 5.360672,1.117193 8.219698,1.117193 2.58027,0 5.360672,-0.371674 7.926647,-1.117193 2.415876,-0.854105 4.981852,-1.781173 7.226186,-3.093465 2.058498,-1.334421 4.302833,-2.897622 6.175493,-4.768854 1.779743,-1.979132 3.480864,-3.933276 4.803163,-6.175438 1.293708,-2.437376 2.351549,-4.65741 3.080599,-7.226243 0.628986,-2.738889 1.107874,-5.240536 1.107874,-7.995951 0,-4.369333 -0.807676,-8.231133 -2.423024,-11.938544 -1.765449,-3.903314 -3.8168,-6.929592 -6.590054,-9.64921 -2.866172,-2.794755 -5.98251,-4.869664 -9.64921,-6.432807 C 57.848024,10.694992 54.174177,9.9802355 50.057181,9.9802355 Z M 14.619563,40.256569 c 0,-3.433633 0.421993,-6.560719 1.26512,-9.637775 0.657575,-3.28359 2.015612,-5.943855 3.538043,-8.61064 1.343743,-2.870461 3.352207,-5.095468 5.51792,-7.2705 2.051349,-2.336568 4.545849,-4.042662 7.176151,-5.5836754 2.515943,-1.742577 5.453591,-2.7389474 8.469863,-3.5966539 2.944795,-1.0549805 6.168347,-1.2951386 9.434782,-1.2951386 3.109191,0 6.361332,0.4322843 9.363308,1.2951386 2.84473,0.6647226 5.810969,2.0548954 8.441272,3.5966539 2.530237,1.3401954 5.024736,3.4029824 7.176152,5.5836754 2.044204,2.018472 4.002636,4.598742 5.517919,7.2705 1.472399,2.468026 2.708927,5.536503 3.566634,8.61064 0.814821,2.867602 1.293709,6.287741 1.293709,9.637775 0,3.191415 -0.436287,6.427832 -1.293709,9.448392 -0.900592,2.886929 -2.044203,5.846706 -3.566634,8.465573 -1.565316,2.520974 -3.359355,5.013987 -5.517919,7.181185 -2.265776,2.049178 -4.538702,4.009039 -7.176152,5.550054 -2.737517,1.48029 -5.446443,2.725394 -8.441272,3.573782 -3.152075,0.787661 -6.125461,1.262259 -9.363308,1.262259 -3.395092,0 -6.418511,-0.419132 -9.434782,-1.262259 -3.094894,-0.904138 -5.839559,-2.037742 -8.469863,-3.573782 -2.744663,-1.596765 -5.017587,-3.389375 -7.176151,-5.550054 -2.265778,-2.2787 -4.002636,-4.559458 -5.51792,-7.181185 -1.693972,-2.719619 -2.701778,-5.441411 -3.538043,-8.465573 -1.029249,-3.160652 -1.26512,-6.170464 -1.26512,-9.448392 z M 26.984848,26.88851 c 0.200132,-0.563799 0.61469,-0.893445 1.014953,-1.451698 0.235584,-0.706122 0.964922,-1.00489 1.672531,-1.340139 0.70046,-0.519772 1.586759,-0.460875 2.616007,-0.357379 0.864855,0.04574 2.280073,0.611146 3.738177,1.518828 3.187812,1.915604 6.675822,3.523806 9.777864,4.5566 2.944797,0.848388 5.803823,1.786891 8.141075,2.2779 2.330105,0.268177 4.224209,0.83272 5.660869,1.016441 1.215086,0.100642 2.23004,0.412843 2.365844,0.681135 0.486034,1.625354 1.386627,3.277871 2.537384,4.73523 0.957774,1.228695 2.358696,2.744723 3.630963,3.875467 1.05784,1.047089 2.501646,2.088461 3.702437,2.870403 1.193643,0.692628 2.151416,1.37382 2.830435,1.775513 0.157246,-0.03431 0.150385,0.556366 -0.03431,1.150758 -0.421992,0.477456 -0.507763,1.289419 -0.957773,2.099209 -0.607543,0.714758 -1.014954,1.675389 -1.679678,2.590963 -0.72905,0.910658 -1.358037,1.773339 -2.087087,2.568834 -0.807676,0.64191 -1.443809,1.482464 -2.158564,2.077083 -0.786232,0.46888 -1.379479,0.977101 -2.02991,1.139321 -0.285901,-0.02859 -0.292763,0.09492 -0.378532,0.279613 -0.314494,0.06346 -0.136092,0.365384 -0.157248,0.53578 -0.192698,0.108638 -0.02287,0.272753 -0.02287,0.300772 l -2.637456,3.205652 -12.186595,-11.22379 1.579613,-2.077825 C 50.993794,48.674683 50.178972,48.062851 49.328411,47.459596 48.349196,46.74484 47.462898,46.259492 46.28355,45.684142 45.025578,44.877154 43.796198,44.679196 42.373834,44.411133 41.802028,44.265893 41.816322,44.121227 41.816322,43.85305 l -17.468643,-15.34513 1.014954,-1.061385 0.55751,0.503188 c -0.192699,-0.301912 0.1075,-0.441433 0.328789,-0.525487 0.157245,-0.184694 0.464876,-0.268177 0.736199,-0.535783 z m -4.974703,41.332927 -6.33989,6.90243 C 13.282969,72.85666 11.360275,70.43861 9.5590899,67.763993 7.5434772,64.890674 6.2354726,62.266088 4.9560587,59.286983 3.5765793,56.076299 2.7188727,53.211554 2.0470014,49.995152 1.2750643,46.544309 1.039195,43.495901 1.039195,40.145067 c 0,-3.472973 0.3362218,-6.750845 1.0078064,-9.984403 0.5789531,-3.285706 1.6224961,-6.309868 2.8447299,-9.23608 1.1293153,-3.006952 2.7017786,-5.67585 4.4457839,-8.230389 C 10.938569,9.9523883 13.011362,7.7966835 15.112745,5.6580763 l 6.8974,6.3992417 c -3.802504,3.506595 -6.597202,7.938084 -8.62711,12.642609 -2.101382,4.564433 -3.052008,9.855746 -3.052008,15.44514 0,2.758273 0.278469,5.525809 0.836265,8.152511 0.514624,2.476657 1.365184,5.126231 2.415876,7.516375 0.914888,2.353723 2.280073,4.623788 3.702438,6.722998 1.250823,1.974158 3.001975,3.995547 4.724539,5.684486 z m 76.95066,-28.07637 c 0,6.653695 -1.215085,12.982891 -3.638109,18.840289 C 92.685244,64.703407 89.440251,70.0312 84.944435,74.56487 l -6.954579,-6.845936 c 3.559486,-3.676648 6.597201,-7.622103 8.627108,-12.396733 1.858366,-4.87458 3.052009,-9.830014 3.052009,-15.177134 0,-5.640114 -0.993511,-10.737756 -2.973385,-15.44514 -2.180007,-4.847476 -4.69595,-8.917986 -8.148221,-12.642609 L 85.45906,5.6580763 c 2.101382,2.0435161 4.016929,4.7217377 5.675163,7.3484377 1.64394,2.565976 3.073453,5.394236 4.238505,8.320449 0.936331,2.719676 2.058499,5.974677 2.673188,9.146764 0.435716,3.004093 0.914889,6.38775 0.914889,9.67134" />
</svg>
