<?xml version="1.0" encoding="UTF-8" standalone="no"?>
<!-- Check Engine — Идеально подогнан под размеры и сетку маслёнки (100x80) -->
<svg
   id="svg_check_engine"
   height="80"
   width="100"
   version="1.1"
   xmlns="http://www.w3.org/2000/svg">
  <g
     transform="matrix(1.10,0,0,1.10,3.5,2.0)"
     id="g_engine_body">
    <path
       d="M21.33,3.23V0h27V3.24H40.73v3h1.18c2.28,0,4.56,0,6.84,0a5.44,5.44,0,0,1,5.74,5.1,8,8,0,0,0,.21,1.3,2.36,2.36,0,0,0,2.44,1.87l6.36,0a2.12,2.12,0,0,1,.32.17v6.1h3.31v-6.1a7.6,7.6,0,0,1,.8-.14c2.72,0,5.44,0,8.16,0a1,1,0,0,1,1.15.89c.58,2.49,1.27,5,1.84,7.44a15.64,15.64,0,0,1,.39,3.2c0,3.4-.11,6.8,0,10.2a32.26,32.26,0,0,1-1.45,10.38c-.31,1.12-.53,2.26-.87,3.36-.11.34-.49.84-.75.84-3,.06-6.07,0-9.24,0V44.62h-3.4c0,1.06,0,2.05,0,3A5.38,5.38,0,0,1,58.57,53c-9.56,0-19.12,0-28.68,0a6,6,0,0,1-4.2-2c-2.1-2.08-4.24-4.13-6.31-6.23a3.32,3.32,0,0,0-2.66-1.1c-1.11,0-2.24,0-3.36,0A5.37,5.37,0,0,1,8.1,38.18c0-3.4,0-6.8,0-10.29H3.76V40.42c-2.17-.3-2.55-.72-2.55-2.66,0-3.32,0-6.64,0-10,0-.41,0-1-.3-1.21-1-.77-.9-1.78-.9-2.82C0,21,0,18.25,0,15.49A3,3,0,0,1,.8,13.75c.8-.91,1.76-1.69,2.86-2.73V24.31H8.1V19.83c0-.84,0-1.68,0-2.52a5.48,5.48,0,0,1,5.3-5.56c.36,0,.72,0,1.08,0,2.23,0,2.38-.15,3.31-2.18A5.34,5.34,0,0,1,22.88,6.2c2,0,4.06,0,6.18,0v-3ZM60.48,17.85H57.69c-3.82,0-6-2-6.5-5.74-.23-2-.84-2.54-2.88-2.54H23.72c-2,0-2.34.25-3.13,2.11a5.29,5.29,0,0,1-4.68,3.4c-.71.06-1.44,0-2.16,0a2.18,2.18,0,0,0-2.3,2.37q0,10.2,0,20.39a2.13,2.13,0,0,0,2.27,2.38c1.08.06,2.16,0,3.24,0a6.07,6.07,0,0,1,4.62,1.91c2.13,2.15,4.32,4.25,6.46,6.4a3.51,3.51,0,0,0,2.66,1.1c9,0,18,0,27,0,2,0,2.76-.77,2.77-2.73V41.28H70.53v6.26c1.19,0,2.26,0,3.33,0a1,1,0,0,0,.7-.6c.63-2.83,1.75-5.55,1.65-8.55-.12-3.35-.16-6.72,0-10.07s-.79-6.48-1.6-9.64c-.08-.29-.38-.73-.6-.75-1.13-.07-2.27,0-3.54,0V24.1h-10Z"
       style="fill:#ffff00;fill-opacity:1;fill-rule:evenodd"
       id="path_engine" />
  </g>
</svg>
