<?xml version="1.0" standalone="no"?>
<!DOCTYPE svg PUBLIC "-//W3C//DTD SVG 20010904//EN"
 "http://www.w3.org/TR/2001/REC-SVG-20010904/DTD/svg10.dtd">
<svg version="1.0" xmlns="http://www.w3.org/2000/svg"
 width="128.000000pt" height="128.000000pt" viewBox="0 0 128.000000 128.000000"
 preserveAspectRatio="xMidYMid meet">

<!-- Заменили fill="#000000" на зеленый цвет fill="#00ff00" для всей группы элементов -->
<g transform="translate(0.000000,128.000000) scale(0.100000,-0.100000)"
fill="#00ff00" stroke="none">
<path d="M56 1154 c-4 -11 14 -37 56 -80 l61 -64 -55 0 c-57 0 -79 -15 -55
-39 15 -15 179 -15 195 1 14 14 16 165 3 186 -5 8 -17 12 -27 10 -15 -2 -20
-15 -24 -56 l-5 -53 -55 56 c-55 56 -83 68 -94 39z"/>
<path d="M540 1060 c-262 -47 -430 -302 -365 -553 26 -100 98 -217 134 -217
22 0 101 80 101 103 0 27 -33 20 -65 -13 -23 -24 -31 -27 -43 -18 -25 21 -73
129 -79 178 l-6 49 49 3 c41 3 49 6 49 23 0 17 -8 20 -51 23 l-51 3 8 46 c9
49 46 135 72 168 15 19 20 16 141 -105 70 -69 126 -132 126 -141 0 -27 36 -52
64 -45 56 14 54 91 -2 102 -20 4 -69 46 -151 128 l-123 123 49 31 c53 33 130
62 168 62 23 0 25 -3 25 -51 0 -47 2 -50 23 -47 19 3 22 10 25 52 l3 48 42 -6
c53 -9 151 -52 173 -77 17 -19 16 -21 -16 -54 -32 -33 -33 -36 -17 -52 16 -16
19 -15 52 17 33 32 35 33 54 16 25 -22 68 -120 77 -173 l6 -42 -48 -3 c-42 -3
-49 -6 -52 -25 -3 -21 0 -23 47 -23 48 0 51 -2 51 -25 0 -38 -29 -115 -62
-168 l-31 -48 -32 31 c-32 31 -64 37 -72 13 -6 -18 76 -103 99 -103 11 0 31
14 46 32 221 260 81 662 -255 733 -74 16 -96 17 -163 5z"/>
</g>
</svg>
