<?xml version="1.0" encoding="UTF-8"?>
<!-- ISO 7000-2239 — Открытая дверь. Перекрашено в красный (#ff0000), исправлено для VS Code -->
<svg 
  width="200" 
  height="200" 
  viewBox="0 0 53.71 53.71" 
  version="1.1" 
  xmlns="http://www.w3.org/2000/svg">
  <title>ISO 7000-2239 — Door open</title>
  
  <!-- Основной контур принудительно перекрашен в красный цвет (#ff0000) -->
  <path fill="#ff0000" d="m 32.453105,1.243672 c -0.66829,-1.26e-4 -1.33881,0.0123 -1.68413,0.03721 -2.54892,0.183664 -5.27861,0.533754 -7.50911,2.261878 l -0.004,0.0036 -0.006,0.0041 c -1.05216,0.847664 -1.75104,2.016145 -1.97094,3.361035 -0.47773,2.9218 -0.75464,6.81312 -0.91158,10.81846 h 1.27486 c 0.15483,-3.9676 0.42467,-7.79862 0.88522,-10.61537 0.17055,-1.0431 0.68842,-1.907151 1.5136,-2.574011 1.89682,-1.466914 4.32784,-1.818234 6.82026,-1.997804 0.46717,-0.03373 2.72367,-0.03252 3.17396,0 h 0.002 c 2.49243,0.17957 4.92447,0.530891 6.82129,1.997804 0.82517,0.66686 1.34047,1.531441 1.51102,2.574531 1.29119,7.89698 1.12746,23.701905 0.87488,28.474235 l -0.89245,11.99616 c -0.10082,1.39513 -0.65534,2.20745 -1.60093,2.77555 -0.94559,0.56808 -2.34146,0.83974 -4.00234,0.83974 h -4.35529 -4.35529 c -1.66088,0 -3.05469,-0.27166 -4.00028,-0.83974 -0.94507,-0.56779 -1.50021,-1.37971 -1.60145,-2.77348 v -0.002 l -0.48472,-6.94532 h -1.26918 l 0.49196,7.0373 c 0.1248,1.72701 0.95871,3.01585 2.2102,3.76773 1.2515,0.75189 2.85984,1.02164 4.65243,1.02164 h 4.35633 4.35529 c 1.79261,0 3.40247,-0.26975 4.65398,-1.02164 1.25101,-0.75158 2.0854,-2.0397 2.21071,-3.76566 v -0.002 l 0.89452,-12.01374 v -0.006 c 0.25862,-4.88662 0.44565,-20.572115 -0.8909,-28.746565 -0.2199,-1.34489 -0.91775,-2.513371 -1.9699,-3.361035 l -0.004,-0.0041 -0.006,-0.0036 c -2.23065,-1.728239 -4.96107,-2.078224 -7.51014,-2.261878 -0.3382,-0.02442 -1.00478,-0.03708 -1.67328,-0.03721 z m -0.0109,13.050883 c -2.31007,-8e-4 -4.62159,0.58638 -6.60218,1.76372 -0.84087,0.49984 -0.38706,1.28984 -0.38706,1.28984 l 2.51199,4.15531 c 3.0825,-0.71809 6.05518,-0.64187 8.94674,0 l 2.51148,-4.15531 c 0,0 0.45381,-0.79 -0.38706,-1.28984 -1.97521,-1.17414 -4.28384,-1.76292 -6.59391,-1.76372 z m -13.49478,6.31693 c -0.30266,0.005 -0.57606,0.12145 -0.72864,0.38189 l -9.20047,15.935455 3.57135,2.06189 3.07579,-0.82424 4.72529,-8.18503 v -8.136965 c 0.0292,-0.71657 -0.77749,-1.24415 -1.44332,-1.233 z m 9.19272,18.929085 c 0,0 -0.76067,0.68053 -2.43758,2.47013 -0.99392,1.06071 0.30328,1.9367 0.71055,1.93735 3.97494,0 7.94992,0.006 11.92485,0 0.40727,-6.4e-4 1.70446,-0.87664 0.71056,-1.93735 -1.67691,-1.78959 -2.4381,-2.47013 -2.4381,-2.47013 -1.56117,0.21196 -6.90774,0.21204 -8.47028,0 z"/>
</svg>
