<?xml version="1.0" encoding="UTF-8"?>
<svg width="200" height="200" viewBox="0 0 200 200" version="1.1" xmlns="http://www.w3.org/2000/svg">
  <!-- Левая фара: внутри пусто, контур желтый (#ffff00) -->
  <path fill="none" stroke="#ffff00" stroke-width="10" d="M84.678,26.953 A279.15,279.15 0 0,1 94.787,100 A279.15,279.15 0 0,1 84.715,172.965 A74.91,74.91 0 0,1 25.899,100 A74.91,74.91 0 0,1 84.678,26.953 Z" />
  
  <!-- Волнистая линия по центру: заливка желтая (#ffff00) -->
  <path fill="#ffff00" d="M141.88,18.539 C137.09,26.086 134.783,35.08 135.585,44.012 C136.267,51.611 138.95,58.343 141.11,64.582 C143.263,70.801 144.945,76.787 144.569,82.312 C144.242,87.126 142.289,92.22 140.151,97.712 C138.006,103.224 135.625,109.369 135.478,116.31 C135.316,123.969 137.933,130.884 140.623,137.016 C143.303,143.127 146.096,148.693 147.352,154.194 C149.458,163.421 147.333,173.689 141.793,181.462 L153.647,181.462 C158.216,172.421 159.616,161.937 157.353,152.021 C155.735,144.931 152.561,138.829 150.04,133.082 C147.529,127.356 145.611,121.757 145.722,116.52 C145.823,111.772 147.619,106.686 149.728,101.268 C151.844,95.831 154.326,89.829 154.792,82.977 C155.327,75.113 153.062,67.876 150.814,61.381 C148.573,54.908 146.311,48.91 145.793,43.141 C144.998,34.287 148.449,24.944 154.787,18.539 Z" />
  
  <!-- Три горизонтальных луча справа: обводка желтая (#ffff00) -->
  <g stroke="#ffff00" stroke-width="10" stroke-linecap="round">
    <line x1="113.58" y1="61.5" x2="179.0" y2="61.5" />
    <line x1="113.58" y1="100.0" x2="179.0" y2="100.0" />
    <line x1="113.58" y1="138.5" x2="179.0" y2="138.5" />
  </g>
</svg>
