<?xml version="1.0" standalone="no"?>
<!DOCTYPE svg PUBLIC "-//W3C//DTD SVG 20010904//EN"
 "http://www.w3.org/TR/2001/REC-SVG-20010904/DTD/svg10.dtd">
<svg version="1.0" xmlns="http://www.w3.org/2000/svg"
 width="128.000000pt" height="128.000000pt" viewBox="0 0 128.000000 128.000000"
 preserveAspectRatio="xMidYMid meet">

<!-- Заменили fill="#000000" на красный цвет fill="#ff0000" для всей группы элементов -->
<g transform="translate(0.000000,128.000000) scale(0.100000,-0.100000)"
fill="#ff0000" stroke="none">
<path d="M570 1104 c-46 -9 -145 -47 -183 -71 -84 -53 -153 -141 -189 -242
-30 -83 -29 -225 2 -306 41 -105 104 -186 187 -238 81 -51 152 -70 253 -70
138 0 238 41 330 133 91 91 133 195 133 330 0 75 -4 107 -23 155 -56 144 -151
239 -289 286 -56 20 -174 32 -221 23z m235 -109 c76 -37 153 -113 191 -190 26
-55 29 -69 29 -165 0 -96 -3 -110 -29 -165 -38 -77 -114 -153 -191 -191 -55
-26 -69 -29 -165 -29 -96 0 -110 3 -165 29 -77 38 -153 114 -191 191 -26 55
-29 69 -29 165 0 94 3 111 27 160 51 104 126 172 231 211 80 30 212 22 292
-16z"/>
<path d="M520 615 l0 -265 35 0 35 0 0 100 0 100 68 0 c97 0 159 42 182 123
13 45 0 101 -32 142 -36 46 -91 65 -195 65 l-93 0 0 -265z m224 154 c64 -76
-4 -161 -120 -147 l-29 3 -3 88 -3 87 65 0 c59 0 66 -2 90 -31z"/>
<path d="M96 978 c-83 -127 -115 -313 -81 -473 15 -71 81 -217 101 -222 6 -2
21 5 34 15 l22 18 -31 62 c-44 87 -61 162 -61 267 0 102 16 168 62 259 l30 60
-22 18 c-29 23 -36 23 -54 -4z"/>
<path d="M1131 981 l-23 -18 31 -61 c43 -86 61 -162 61 -262 0 -100 -18 -176
-61 -262 l-31 -61 23 -18 c13 -10 29 -17 34 -16 6 1 27 36 48 77 64 128 82
272 52 415 -15 70 -81 217 -100 222 -5 1 -21 -6 -34 -16z"/>
</g>
</svg>
