<?xml version="1.0" encoding="UTF-8"?>
<svg width="200" height="200" viewBox="0 0 200 200" version="1.1" xmlns="http://www.w3.org/2000/svg">
  <!-- Центральная фара: внутри прозрачная (none), контур синий (#0066FF) -->
  <path fill="none" stroke="#0066FF" stroke-width="10" stroke-linejoin="round" d="m124.18 50.565-26.648 2e-3a1.5214 1.5214 0 0 0-1.3966 0.91808l-0.90617 2.0976c-13.692 31.692-13.692 71.153 2e-3 102.84l0.90616 2.0976a1.5212 1.5212 0 0 0 1.3966 0.91793l26.646-2e-3c19.06 0 36.407-5.8091 49.203-15.494 12.796-9.685 21.113-23.506 21.113-38.943s-8.3173-29.26-21.113-38.945c-12.796-9.6849-30.144-15.492-49.203-15.492z" />
  
  <!-- Пять синих горизонтальных лучей света слева -->
  <g fill="#0066FF">
    <path d="m16.314 140.42v10h65.16c-1.0885-3.2864-2.0667-6.6225-2.9316-10z" />
    <path d="m16.314 117.71v10h59.527c-0.56261-3.3108-1.0169-6.6481-1.375-10z" />
    <path d="m16.314 95v10h57.285c-0.09944-3.3321-0.09957-6.6678 0-10z" />
    <path d="m16.314 72.291v10h58.154c0.35821-3.352 0.81035-6.689 1.373-10z" />
    <path d="m16.314 49.582v10h62.23c0.86491-3.3774 1.8413-6.7137 2.9297-10z" />
  </g>
</svg>
