<?xml version="1.0" encoding="UTF-8"?>
<!-- ISO 7000-0241 — Открытый капот. Перекрашено в красный (#ff0000), добавлена полная заливка -->
<svg 
 id="svg_hood_open"
 width="100" 
 height="80" 
 viewBox="0 0 200 200" 
 version="1.1" 
 xmlns="http://www.w3.org/2000/svg">
  <title>ISO 7000-0241 — Bonnet / hood open</title>
  
  <!-- ИЗМЕНЕНО: fill="none" заменено на fill="#ff0000". stroke убран, чтобы контур не двоился, а иконка была монолитной -->
  <g fill="#ff0000">
    <path d="m141.32 131.06h-82.648l-0.0049-9.9e-4c-0.91373 7.1928-7.0348 12.582-14.286 12.582-7.9566 0-14.407-6.4501-14.407-14.407 0-0.36079 0.01355-0.72146 0.10391-1.0736l-0.06371-2e-3-19.682-5.242-6.2921-12.584 7.7902-13.408 46.216-9.8513 27.094-27.165a8.325 8.325 158.3 0 1 6.1379-2.4424l40.915 1.1976a8.9274 8.9274 23.629 0 1 6.1152 2.6754l23.763 24.251 29.661 8.8983 4.2901 15.32-10.337 14.382-15.681 4.4566-0.0107 4e-4c0.0187 0.19529 0.0227 0.39121 0.0227 0.58714 0 7.9566-6.4501 14.407-14.407 14.407-7.2494 0-13.37-5.3868-14.206-12.59z"/>
    
    <!-- Окно автомобиля: за счет инверсии путей оно может стать вырезом или заливкой. 
         Если нужно сделать его прозрачным "вырезом", можно добавить fill-rule. Оставляем залитым для монолитности. -->
    <path d="m73.48 86.758h61.55l-4.316-17.491-38.659-1.1316z"/>
  </g>
  
  <!-- Стрелочка открытия капота (уже имеет fill="#ff0000") -->
  <path fill="#ff0000" d="m49.373 88.926-26.205-21.82-3.8951 2.6966-8.3364-7.3316 3.9229-1.933c3.9858-1.964 8.7054-1.7191 12.466 0.64711l34.746 21.86-4.021 4.0314z"/>
</svg>
