<?xml version="1.0" encoding="UTF-8"?>
<!-- Датчик выхлопа / DPF — Перекрашено в желтый (#ffff00), адаптировано под размер и сетку 100x80 -->
<svg 
 id="svg_exhaust_warning"
 width="100" 
 height="80" 
 viewBox="0 0 166.4 130.49" 
 version="1.1" 
 xmlns="http://www.w3.org/2000/svg">
 
  <g transform="translate(114.261,87.847) scale(7.804534) scale(1,-1) translate(2.597500,-1.718000)">
    <!-- Заменили currentColor на жесткий желтый цвет #ffff00 -->
    <path fill="#ffff00" fill-rule="nonzero" d="m 0,0 c 0.057,-0.137 0.136,-0.254 0.233,-0.352 0.098,-0.097 0.216,-0.176 0.352,-0.234 0.138,-0.059 0.273,-0.098 0.43,-0.098 0.157,0 0.293,0.039 0.43,0.098 0.117,0.058 0.235,0.137 0.333,0.234 C 1.895,-0.254 1.973,-0.137 2.03,0 2.089,0.136 2.108,0.273 2.108,0.429 2.108,0.566 2.089,0.702 2.03,0.839 1.973,0.977 1.895,1.093 1.778,1.191 1.68,1.289 1.562,1.367 1.445,1.425 1.308,1.484 1.172,1.523 1.015,1.523 0.858,1.523 0.723,1.484 0.585,1.425 0.449,1.367 0.331,1.289 0.233,1.191 0.136,1.093 0.057,0.977 0,0.839 -0.059,0.702 -0.097,0.566 -0.097,0.429 -0.097,0.273 -0.059,0.136 0,0 M 2.011,3.418 C 2.011,3.3 1.992,3.183 1.932,3.066 1.895,2.949 1.816,2.832 1.738,2.734 1.659,2.636 1.542,2.558 1.426,2.5 1.308,2.441 1.172,2.421 1.015,2.421 0.879,2.421 0.761,2.441 0.644,2.5 0.507,2.558 0.409,2.636 0.312,2.734 0.214,2.832 0.136,2.949 0.078,3.066 0.02,3.183 0,3.3 0,3.418 l 0,5.234 c 0,0.156 0.02,0.292 0.078,0.41 0.058,0.117 0.136,0.234 0.234,0.313 0.097,0.097 0.195,0.156 0.332,0.214 0.117,0.039 0.235,0.059 0.371,0.059 0.314,0 0.547,-0.079 0.723,-0.273 C 1.913,9.198 2.011,8.964 2.011,8.652 l 0,-5.234 z m -8.572,-5.762 c 0.606,0.176 1.172,0.41 1.699,0.723 0.528,0.312 1.015,0.683 1.445,1.113 0.43,0.449 0.782,0.918 1.093,1.445 0.314,0.527 0.549,1.094 0.704,1.699 0.176,0.606 0.254,1.231 0.254,1.895 0,0.663 -0.078,1.308 -0.254,1.933 -0.155,0.605 -0.39,1.192 -0.704,1.719 -0.311,0.547 -0.663,1.035 -1.093,1.465 -0.43,0.449 -0.917,0.82 -1.445,1.133 -0.527,0.312 -1.093,0.546 -1.699,0.722 -0.625,0.176 -1.25,0.254 -1.934,0.254 -0.644,0 -1.269,-0.078 -1.875,-0.254 -0.625,-0.176 -1.191,-0.41 -1.718,-0.722 -0.547,-0.313 -1.015,-0.684 -1.464,-1.133 -0.449,-0.43 -0.82,-0.918 -1.153,-1.465 -0.313,-0.527 -0.567,-1.114 -0.743,-1.719 -0.174,-0.625 -0.252,-1.27 -0.252,-1.933 0,-0.664 0.078,-1.289 0.252,-1.895 0.176,-0.605 0.43,-1.172 0.743,-1.699 0.333,-0.527 0.704,-0.996 1.153,-1.445 0.449,-0.43 0.917,-0.801 1.464,-1.113 0.527,-0.313 1.093,-0.547 1.718,-0.723 0.606,-0.176 1.231,-0.254 1.875,-0.254 0.684,0 1.309,0.078 1.934,0.254 m -1.074,8.203 c 0.254,-0.117 0.468,-0.274 0.663,-0.469 0.176,-0.215 0.333,-0.449 0.43,-0.722 0.119,-0.254 0.157,-0.548 0.157,-0.84 0,-0.313 -0.038,-0.586 -0.157,-0.86 C -6.639,2.714 -6.796,2.48 -6.972,2.265 -7.167,2.07 -7.381,1.914 -7.635,1.796 -7.908,1.679 -8.182,1.621 -8.495,1.621 c -0.292,0 -0.565,0.058 -0.82,0.175 -0.273,0.118 -0.487,0.274 -0.682,0.469 -0.176,0.215 -0.333,0.449 -0.43,0.703 -0.119,0.274 -0.157,0.547 -0.157,0.86 0,0.292 0.038,0.586 0.157,0.84 0.097,0.273 0.254,0.507 0.43,0.722 0.195,0.195 0.409,0.352 0.682,0.469 0.255,0.117 0.528,0.176 0.82,0.176 0.313,0 0.587,-0.059 0.86,-0.176 m 0.937,4.629 c 0.587,-0.176 1.114,-0.43 1.582,-0.743 0.49,-0.331 0.917,-0.702 1.309,-1.152 0.39,-0.449 0.703,-0.937 0.958,-1.445 0,-0.117 -0.059,-0.215 -0.138,-0.312 C -3.065,6.738 -3.162,6.679 -3.26,6.62 l -10.449,0 c -0.098,0.059 -0.195,0.118 -0.273,0.216 -0.079,0.097 -0.117,0.195 -0.117,0.312 0.252,0.508 0.566,0.996 0.937,1.445 0.39,0.45 0.819,0.821 1.309,1.152 0.468,0.313 0.996,0.567 1.581,0.743 0.568,0.175 1.152,0.273 1.777,0.273 0.625,0 1.231,-0.098 1.797,-0.273 M -9.764,0.664 c 0.392,-0.157 0.82,-0.235 1.269,-0.235 0.47,0 0.899,0.078 1.29,0.235 0.39,0.175 0.761,0.351 1.112,0.566 l 1.017,-0.801 0,-0.097 0.176,-0.235 0.077,-0.253 c 0,-0.079 -0.02,-0.137 -0.057,-0.235 l -0.06,-0.02 0.06,-0.077 c -0.547,-0.352 -1.134,-0.626 -1.719,-0.821 -0.606,-0.196 -1.231,-0.293 -1.896,-0.293 -0.644,0 -1.288,0.097 -1.913,0.293 -0.625,0.195 -1.191,0.469 -1.699,0.821 l 0,0.097 c -0.04,0.117 -0.059,0.215 -0.059,0.293 l 0.059,0.215 c 0.038,0.078 0.116,0.137 0.214,0.215 l 0,0.097 0.996,0.801 c 0.351,-0.215 0.724,-0.391 1.133,-0.566 m 5.254,2.832 c 0.097,0.332 0.157,0.664 0.157,1.015 l 0,0.41 1.504,0 c 0.135,0 0.252,-0.039 0.352,-0.137 0.097,-0.097 0.135,-0.214 0.135,-0.351 0,-0.469 -0.059,-0.918 -0.156,-1.367 -0.098,-0.43 -0.255,-0.859 -0.45,-1.25 l -0.097,0 C -3.122,1.66 -3.201,1.562 -3.298,1.503 -3.398,1.445 -3.514,1.406 -3.671,1.406 L -4.88,2.52 c 0.156,0.312 0.291,0.624 0.37,0.976 m -8.087,1.015 c 0,-0.351 0.041,-0.683 0.138,-1.015 0.097,-0.332 0.214,-0.626 0.352,-0.879 l -1.191,-1.211 c -0.156,0 -0.275,0.039 -0.373,0.097 -0.097,0.059 -0.176,0.157 -0.233,0.313 l -0.097,0 c -0.216,0.391 -0.352,0.82 -0.45,1.25 -0.097,0.449 -0.156,0.898 -0.156,1.367 0,0.137 0.038,0.254 0.135,0.351 0.1,0.098 0.217,0.137 0.373,0.137 l 1.502,0" />
  </g>
</svg>
